<svg xmlns="http://www.w3.org/2000/svg" width="1200" height="540" viewBox="0 0 1200 540">
  <rect width="1200" height="540" fill="#F5F3EE" />
  <g font-family="Georgia, Times New Roman, serif" fill="#1F2937">
    <text x="40" y="52" font-size="34" font-weight="700">ClaudeGuardian Architecture</text>
  </g>

  <g>
    <rect x="60" y="110" width="300" height="110" rx="12" fill="#DCEADB" stroke="#0B3D2E" />
    <text x="80" y="155" font-size="24" fill="#0B3D2E" font-family="Georgia, Times New Roman, serif">Prompt Corpus</text>
    <text x="80" y="187" font-size="18" fill="#0B3D2E" font-family="Georgia, Times New Roman, serif">prompts/jailbreak_prompts.json</text>

    <rect x="450" y="110" width="300" height="110" rx="12" fill="#FCE8CC" stroke="#8A5A14" />
    <text x="470" y="155" font-size="24" fill="#8A5A14" font-family="Georgia, Times New Roman, serif">Red Team Engine</text>
    <text x="470" y="187" font-size="18" fill="#8A5A14" font-family="Georgia, Times New Roman, serif">injection_tests + generator</text>

    <rect x="840" y="110" width="300" height="110" rx="12" fill="#DEEAF8" stroke="#1D4E89" />
    <text x="860" y="155" font-size="24" fill="#1D4E89" font-family="Georgia, Times New Roman, serif">Model API</text>
    <text x="860" y="187" font-size="18" fill="#1D4E89" font-family="Georgia, Times New Roman, serif">Anthropic Claude</text>

    <rect x="250" y="320" width="300" height="120" rx="12" fill="#EDE4F8" stroke="#5B2E91" />
    <text x="270" y="366" font-size="24" fill="#5B2E91" font-family="Georgia, Times New Roman, serif">Evaluation</text>
    <text x="270" y="398" font-size="18" fill="#5B2E91" font-family="Georgia, Times New Roman, serif">hallucination + safety_score</text>

    <rect x="650" y="320" width="300" height="120" rx="12" fill="#DFF2EA" stroke="#116149" />
    <text x="670" y="366" font-size="24" fill="#116149" font-family="Georgia, Times New Roman, serif">Output Layer</text>
    <text x="670" y="398" font-size="18" fill="#116149" font-family="Georgia, Times New Roman, serif">CLI + FastAPI dashboard</text>
  </g>

  <g stroke="#374151" stroke-width="3" fill="none" marker-end="url(#arrow)">
    <path d="M360 165 L450 165" />
    <path d="M750 165 L840 165" />
    <path d="M980 220 L980 300 L800 300" />
    <path d="M600 220 L600 300 L400 300" />
    <path d="M550 380 L650 380" />
  </g>

  <defs>
    <marker id="arrow" viewBox="0 0 10 10" refX="8" refY="5" markerWidth="8" markerHeight="8" orient="auto-start-reverse">
      <path d="M0 0 L10 5 L0 10 Z" fill="#374151" />
    </marker>
  </defs>
</svg>